<?xml version="1.0" encoding="UTF-8"?>
<svg id="Layer_2" data-name="Layer 2" xmlns="http://www.w3.org/2000/svg" viewBox="0 0 776.76 152.11">
  <defs>
    <style>
      .cls-1 {
        fill: #a82431;
      }

      .cls-2 {
        fill: #fff;
      }
    </style>
  </defs>
  <g id="Layer_1-2" data-name="Layer 1">
    <g id="Layer_1-3" data-name="Layer 1">
      <path class="cls-2" d="M106.48,84.75c-.6,1.81-1.67,3.32-3.21,4.52-1.54,1.21-3.65,2.14-6.33,2.8-2.69.66-6.12.99-10.28.99H31.24v-28.78h55.42c4.16,0,7.59.3,10.28.9,2.69.61,4.8,1.54,6.33,2.8,1.53,1.26,2.6,2.77,3.21,4.52.6,1.76.91,3.78.91,6.08s-.3,4.36-.91,6.17M121.61,114.93c3.56-1.97,6.71-4.58,9.46-7.81,2.74-3.23,4.93-7.18,6.58-11.84,1.64-4.66,2.47-10.22,2.47-16.69,0-6.8-.91-12.58-2.71-17.35s-4.19-8.8-7.15-12.09-6.36-5.89-10.2-7.81c-3.84-1.92-7.84-3.37-12.01-4.36s-8.33-1.62-12.5-1.89c-4.17-.27-8-.41-11.51-.41H0v117.43h31.25v-29.6h41.28l30.92,29.6h42.6l-35.69-32.56c3.95-1.09,7.7-2.63,11.27-4.6"/>
      <path class="cls-2" d="M187.81,73.24c1.53-2.69,3.64-4.85,6.33-6.5,2.69-1.64,6.11-2.47,10.28-2.47h42.76c5.59,0,9.92,1.37,12.99,4.11,3.07,2.74,5.04,6.47,5.92,11.18h33.39c-1.1-6.8-2.91-12.64-5.43-17.52-2.53-4.88-5.51-8.99-8.96-12.33-3.46-3.34-7.24-6-11.35-7.98-4.11-1.97-8.22-3.48-12.33-4.52-4.11-1.04-8.17-1.73-12.17-2.05-4-.33-7.59-.49-10.77-.49h-25.49c-3.51,0-7.48.19-11.92.57-4.44.39-8.97,1.26-13.57,2.63s-9.1,3.35-13.48,5.92c-4.39,2.58-8.28,6.03-11.68,10.36s-6.14,9.7-8.22,16.12c-2.08,6.41-3.13,14.12-3.13,23.11s1.04,16.69,3.13,23.11c2.08,6.41,4.82,11.79,8.22,16.12s7.29,7.79,11.68,10.36c4.39,2.58,8.88,4.55,13.48,5.92,4.6,1.37,9.13,2.25,13.57,2.63s8.41.57,11.92.57h22.2c2.63,0,5.48-.11,8.55-.33,3.07-.22,6.28-.63,9.62-1.23s6.71-1.45,10.11-2.55c3.4-1.1,6.69-2.57,9.87-4.44l3.78,8.55h22.37v-64.8h-89.47v21.71h56.41c-.77,3.84-2.77,7.07-6,9.7s-7.43,3.95-12.58,3.95h-43.42c-4.17,0-7.59-.82-10.28-2.47-2.69-1.64-4.8-3.84-6.33-6.58s-2.6-5.86-3.21-9.37-.91-7.13-.91-10.86.3-7.34.91-10.85c.6-3.51,1.67-6.6,3.21-9.29"/>
      <polygon class="cls-2" points="447.94 34.67 407.15 118.88 366.2 34.67 315.71 34.67 315.71 152.1 346.79 152.1 346.79 67.07 387.09 152.1 427.05 152.1 467.34 67.07 467.34 152.1 498.59 152.1 498.59 34.67 447.94 34.67"/>
      <polygon class="cls-2" points="633.45 34.67 633.45 118.39 561.08 34.67 515.04 34.67 515.04 152.1 546.12 152.1 546.12 68.39 618.48 152.1 664.53 152.1 664.53 34.67 633.45 34.67"/>
      <polygon class="cls-1" points="716.9 0 716.9 34.7 682.2 34.7 682.2 59.87 716.9 59.87 716.9 94.57 742.06 94.57 742.06 59.87 776.76 59.87 776.76 34.7 742.06 34.7 742.06 0 716.9 0"/>
      <g>
        <path class="cls-2" d="M689.28,144.6v3.31h-1.75v-8.26h3.63c1.8,0,2.77.98,2.77,2.27,0,1.1-.6,1.7-1.2,1.96.41.16,1.03.58,1.03,2.06v.41c0,.55,0,1.19.12,1.57h-1.7c-.14-.36-.17-.98-.17-1.86v-.12c0-.9-.23-1.33-1.56-1.33h-1.18,0ZM689.28,143.17h1.5c.97,0,1.36-.37,1.36-1.06s-.44-1.06-1.32-1.06h-1.54v2.11h0Z"/>
        <path class="cls-2" d="M690.52,152.1c-4.59,0-8.32-3.73-8.32-8.32s3.73-8.32,8.32-8.32,8.32,3.73,8.32,8.32-3.73,8.32-8.32,8.32ZM690.52,136.95c-3.76,0-6.82,3.06-6.82,6.82s3.06,6.82,6.82,6.82,6.82-3.06,6.82-6.82-3.06-6.82-6.82-6.82Z"/>
      </g>
    </g>
  </g>
</svg>